<?xml version="1.0" encoding="UTF-8" standalone="no"?>
<!DOCTYPE svg PUBLIC "-//W3C//DTD SVG 1.1//EN" "http://www.w3.org/Graphics/SVG/1.1/DTD/svg11.dtd">
<svg xmlns="http://www.w3.org/2000/svg" version="1.1" viewBox="0.00 0.00 180.00 180.00" width="180.00" height="180.00">
<g stroke-width="2.00" fill="none" stroke-linecap="butt">
<path stroke="#8dc3eb" vector-effect="non-scaling-stroke" d="
  M 145.23 35.29
  C 145.23 35.01 145.00 34.78 144.72 34.78
  L 134.38 34.78
  C 134.10 34.78 133.87 35.01 133.87 35.29
  L 133.87 45.09
  C 133.87 45.37 134.10 45.60 134.38 45.60
  L 144.72 45.60
  C 145.00 45.60 145.23 45.37 145.23 45.09
  L 145.23 35.29"/>
<path stroke="#8dc3eb" vector-effect="non-scaling-stroke" d="
  M 160.3553 38.2263
  C 160.36 37.89 160.08 37.62 159.7463 37.6153
  L 153.7064 37.6047
  C 153.37 37.60 153.10 37.88 153.0953 38.2137
  L 153.0847 44.2737
  C 153.08 44.61 153.36 44.88 153.6937 44.8847
  L 159.7336 44.8953
  C 160.07 44.90 160.34 44.62 160.3447 44.2863
  L 160.3553 38.2263"/>
<path stroke="#80acdf" vector-effect="non-scaling-stroke" d="
  M 21.52 81.50
  L 21.55 120.77"/>
<path stroke="#80a4d2" vector-effect="non-scaling-stroke" d="
  M 21.55 120.77
  C 21.10 126.08 23.29 129.34 28.13 130.57
  C 28.39 130.64 28.65 130.67 28.92 130.67
  L 70.13 130.43"/>
<path stroke="#8dc3eb" vector-effect="non-scaling-stroke" d="
  M 70.13 130.43
  C 70.20 130.78 70.18 130.93 70.08 130.87"/>
<path stroke="#809dca" vector-effect="non-scaling-stroke" d="
  M 70.08 130.87
  C 68.95 137.98 63.59 142.24 53.99 143.64
  C 53.07 143.77 52.23 144.27 51.65 145.01
  L 51.62 145.06
  C 51.27 145.53 51.60 146.20 52.19 146.20
  L 118.37 146.30
  C 118.78 146.30 119.09 145.94 119.03 145.54
  C 118.94 144.82 118.32 144.32 117.19 144.05
  C 112.31 142.88 108.12 142.15 105.14 139.42
  C 101.80 136.36 101.58 134.43 100.25 130.89"/>
<path stroke="#8dc3eb" vector-effect="non-scaling-stroke" d="
  M 100.25 130.89
  C 100.26 130.72 100.26 130.55 100.27 130.38"/>
<path stroke="#80a4d2" vector-effect="non-scaling-stroke" d="
  M 100.27 130.38
  C 112.68 130.66 125.12 130.76 137.59 130.69
  C 142.49 130.66 145.59 129.51 147.22 125.05
  C 147.33 124.76 147.38 124.45 147.38 124.14
  L 147.44 114.61"/>
<path stroke="#80acdf" vector-effect="non-scaling-stroke" d="
  M 147.44 114.61
  L 147.35 78.61
  C 147.35 78.33 147.12 78.10 146.83 78.10
  L 137.53 78.10
  C 137.29 78.10 137.10 78.29 137.10 78.53
  C 137.06 91.16 137.08 104.31 137.17 117.98
  C 137.17 118.40 137.04 118.98 136.78 119.73"/>
<path stroke="#80a4d2" vector-effect="non-scaling-stroke" d="
  M 136.78 119.73
  C 136.57 119.88 136.40 120.06 136.27 120.27"/>
<path stroke="#809dca" vector-effect="non-scaling-stroke" d="
  M 136.27 120.27
  C 135.66 120.54 135.15 120.67 134.75 120.67
  C 101.02 120.74 67.10 120.82 32.99 120.93"/>
<path stroke="#80a4d2" vector-effect="non-scaling-stroke" d="
  M 32.99 120.93
  C 32.08 120.64 31.28 120.07 30.58 119.23"/>
<path stroke="#80acdf" vector-effect="non-scaling-stroke" d="
  M 30.58 119.23
  L 30.53 84.19"/>
<path stroke="#80a4d2" vector-effect="non-scaling-stroke" d="
  M 30.53 84.19
  C 30.60 76.16 30.61 68.12 30.56 60.06
  C 30.53 55.05 29.82 51.24 35.76 51.24
  C 62.19 51.23 87.66 51.26 112.16 51.31
  C 112.29 51.31 112.40 51.20 112.40 51.07
  L 112.40 42.62
  C 112.40 42.50 112.30 42.40 112.18 42.40
  C 72.87 42.41 47.02 42.40 34.63 42.35
  C 30.12 42.34 27.09 42.73 25.54 43.54
  C 22.77 44.97 21.40 47.53 21.44 51.24
  C 21.55 61.30 21.58 71.39 21.52 81.50"/>
<path stroke="#0152b3" vector-effect="non-scaling-stroke" d="
  M 30.53 84.19
  C 27.71 82.69 24.71 81.79 21.52 81.50"/>
<path stroke="#0152b3" vector-effect="non-scaling-stroke" d="
  M 30.58 119.23
  C 27.78 120.24 24.77 120.76 21.55 120.77"/>
<path stroke="#0e69bf" vector-effect="non-scaling-stroke" d="
  M 100.27 130.38
  C 90.24 129.56 80.19 129.58 70.13 130.43"/>
<path stroke="#02439e" vector-effect="non-scaling-stroke" d="
  M 32.99 120.93
  C 38.05 122.67 43.48 123.40 49.27 123.11
  C 55.30 122.80 58.44 122.65 58.68 122.65
  C 80.96 122.55 103.24 122.63 125.52 122.88
  C 128.37 122.92 134.71 123.20 136.27 120.27"/>
<path stroke="#0f62b6" vector-effect="non-scaling-stroke" d="
  M 100.25 130.89
  L 70.08 130.87"/>
<path stroke="#0152b3" vector-effect="non-scaling-stroke" d="
  M 147.44 114.61
  C 144.42 117.88 140.87 119.59 136.78 119.73"/>
<path stroke="#8dd1f4" vector-effect="non-scaling-stroke" d="
  M 120.52 47.00
  C 120.05 47.00 119.67 47.38 119.67 47.85
  L 119.67 59.85
  C 119.67 60.32 120.05 60.70 120.52 60.70
  L 132.53 60.70
  C 133.00 60.70 133.38 60.32 133.38 59.85
  L 133.38 47.85
  C 133.38 47.38 133.00 47.00 132.53 47.00
  L 120.52 47.00"/>
<path stroke="#8dc3eb" vector-effect="non-scaling-stroke" d="
  M 153.5270 49.6078
  C 153.53 49.20 153.20 48.88 152.7982 48.8765
  L 145.3582 48.8635
  C 144.96 48.86 144.63 49.19 144.6270 49.5922
  L 144.6130 57.5722
  C 144.61 57.98 144.94 58.30 145.3418 58.3035
  L 152.7818 58.3165
  C 153.18 58.32 153.51 57.99 153.5130 57.5878
  L 153.5270 49.6078"/>
<path stroke="#80acdf" vector-effect="non-scaling-stroke" d="
  M 49.68 83.25
  L 49.71 96.46"/>
<path stroke="#809dca" vector-effect="non-scaling-stroke" d="
  M 49.71 96.46
  L 49.74 112.05
  C 49.75 112.39 50.02 112.67 50.36 112.67
  L 63.58 112.67
  C 63.82 112.67 64.05 112.62 64.26 112.51
  C 65.63 111.82 66.36 110.80 66.43 109.44
  C 66.54 107.52 66.56 103.15 66.51 96.32"/>
<path stroke="#80acdf" vector-effect="non-scaling-stroke" d="
  M 66.51 96.32
  L 83.55 96.34
  C 84.09 96.34 84.57 95.99 84.73 95.47
  L 88.66 82.99
  C 88.81 82.52 88.47 82.05 87.98 82.03
  L 66.51 81.57"/>
<path stroke="#80a4d2" vector-effect="non-scaling-stroke" d="
  M 66.51 81.57
  L 66.55 72.88
  C 66.55 72.39 66.95 71.99 67.45 71.99
  L 92.68 71.99
  C 93.08 71.99 93.43 71.73 93.55 71.35
  L 96.88 60.77
  C 97.05 60.24 96.65 59.70 96.09 59.70
  C 72.26 59.77 59.89 59.80 59.00 59.80
  C 55.09 59.80 49.52 62.40 49.58 67.00
  C 49.67 72.38 49.70 77.80 49.68 83.25"/>
<path stroke="#0152b3" vector-effect="non-scaling-stroke" d="
  M 66.51 81.57
  L 49.68 83.25"/>
<path stroke="#024baa" vector-effect="non-scaling-stroke" d="
  M 66.51 96.32
  L 49.71 96.46"/>
<path stroke="#8dc3eb" vector-effect="non-scaling-stroke" d="
  M 87.97 95.80
  C 87.58 98.65 84.56 99.65 78.93 98.80
  C 78.54 98.74 78.19 99.04 78.19 99.44
  L 78.19 112.10
  C 78.19 112.40 78.43 112.64 78.72 112.64
  L 94.48 112.64
  C 94.86 112.64 95.16 112.34 95.16 111.96
  L 95.14 95.89"/>
<path stroke="#8dd1f4" vector-effect="non-scaling-stroke" d="
  M 95.14 95.89
  C 98.92 94.95 103.41 94.69 108.61 95.10"/>
<path stroke="#8dc3eb" vector-effect="non-scaling-stroke" d="
  M 108.61 95.10
  L 108.62 112.08
  C 108.62 112.41 108.89 112.68 109.22 112.67
  C 111.15 112.63 114.36 112.62 118.85 112.64
  C 122.04 112.65 124.84 111.96 126.46 109.40
  C 127.03 108.49 127.30 106.35 127.27 103.00
  C 127.23 98.68 127.25 94.35 127.33 90.01"/>
<path stroke="#8dd1f4" vector-effect="non-scaling-stroke" d="
  M 127.33 90.01
  L 127.31 67.39
  C 127.31 66.87 126.88 66.45 126.36 66.45
  L 120.24 66.45
  C 119.77 66.45 119.39 66.07 119.39 65.60
  L 119.39 61.54
  C 119.39 61.02 118.96 60.59 118.44 60.59
  L 109.34 60.59
  C 109.04 60.59 108.79 60.84 108.79 61.14
  L 108.79 81.17
  C 108.79 81.68 108.38 82.09 107.88 82.09
  L 92.84 82.09
  C 92.48 82.09 92.17 82.32 92.06 82.66
  L 87.97 95.80"/>
<path stroke="#1c96e1" vector-effect="non-scaling-stroke" d="
  M 127.33 90.01
  C 124.83 91.24 122.65 92.02 120.78 92.34
  C 115.77 93.20 111.71 94.12 108.61 95.10"/>
<path stroke="#1c96e1" vector-effect="non-scaling-stroke" d="
  M 95.14 95.89
  L 87.97 95.80"/>
<path stroke="#809dca" vector-effect="non-scaling-stroke" d="
  M 146.8048 62.5424
  C 146.80 62.16 146.49 61.85 146.1124 61.8548
  L 137.4124 61.8852
  C 137.03 61.89 136.72 62.20 136.7248 62.5776
  L 136.7552 71.2776
  C 136.76 71.66 137.07 71.97 137.4476 71.9652
  L 146.1476 71.9348
  C 146.53 71.93 146.84 71.62 146.8352 71.2424
  L 146.8048 62.5424"/>
</g>
<path fill="#fefefe" d="
  M 163.85 150.31
  C 163.85 150.57 163.64 150.78 163.38 150.78
  L 16.62 150.78
  C 16.36 150.78 16.15 150.57 16.15 150.31
  L 16.15 29.69
  C 16.15 29.43 16.36 29.22 16.62 29.22
  L 163.38 29.22
  C 163.64 29.22 163.85 29.43 163.85 29.69
  L 163.85 150.31
  Z"/>
<path fill="#1b87d7" d="M 145.23 35.29 L 145.23 45.09 C 145.23 45.37 145.00 45.60 144.72 45.60 L 134.38 45.60 C 134.10 45.60 133.87 45.37 133.87 45.09 L 133.87 35.29 C 133.87 35.01 134.10 34.78 134.38 34.78 L 144.72 34.78 C 145.00 34.78 145.23 35.01 145.23 35.29 Z"/>
<rect fill="#1b87d7" x="-3.63" y="-3.64" transform="translate(156.72,41.25) rotate(0.1)" width="7.26" height="7.28" rx="0.61"/>
<path fill="#014aa6" d="M 30.53 84.19 C 27.71 82.69 24.71 81.79 21.52 81.50 C 21.58 71.39 21.55 61.30 21.44 51.24 C 21.40 47.53 22.77 44.97 25.54 43.54 C 27.09 42.73 30.12 42.34 34.63 42.35 C 47.02 42.40 72.87 42.41 112.18 42.40 C 112.30 42.40 112.40 42.50 112.40 42.62 L 112.40 51.07 C 112.40 51.20 112.29 51.31 112.16 51.31 C 87.66 51.26 62.19 51.23 35.76 51.24 C 29.82 51.24 30.53 55.05 30.56 60.06 C 30.61 68.12 30.60 76.16 30.53 84.19 Z"/>
<path fill="#1ca4ea" d="M 120.52 47.00 L 132.53 47.00 C 133.00 47.00 133.38 47.38 133.38 47.85 L 133.38 59.85 C 133.38 60.32 133.00 60.70 132.53 60.70 L 120.52 60.70 C 120.05 60.70 119.67 60.32 119.67 59.85 L 119.67 47.85 C 119.67 47.38 120.05 47.00 120.52 47.00 Z"/>
<rect fill="#1b87d7" x="-4.45" y="-4.72" transform="translate(149.07,53.59) rotate(0.1)" width="8.90" height="9.44" rx="0.73"/>
<path fill="#014aa6" d="M 66.51 81.57 L 49.68 83.25 C 49.70 77.80 49.67 72.38 49.58 67.00 C 49.52 62.40 55.09 59.80 59.00 59.80 C 59.89 59.80 72.26 59.77 96.09 59.70 C 96.65 59.70 97.05 60.24 96.88 60.77 L 93.55 71.35 C 93.43 71.73 93.08 71.99 92.68 71.99 L 67.45 71.99 C 66.95 71.99 66.55 72.39 66.55 72.88 L 66.51 81.57 Z"/>
<path fill="#1ca4ea" d="M 127.33 90.01 C 124.83 91.24 122.65 92.02 120.78 92.34 C 115.77 93.20 111.71 94.12 108.61 95.10 C 103.41 94.69 98.92 94.95 95.14 95.89 L 87.97 95.80 L 92.06 82.66 C 92.17 82.32 92.48 82.09 92.84 82.09 L 107.88 82.09 C 108.38 82.09 108.79 81.68 108.79 81.17 L 108.79 61.14 C 108.79 60.84 109.04 60.59 109.34 60.59 L 118.44 60.59 C 118.96 60.59 119.39 61.02 119.39 61.54 L 119.39 65.60 C 119.39 66.07 119.77 66.45 120.24 66.45 L 126.36 66.45 C 126.88 66.45 127.31 66.87 127.31 67.39 L 127.33 90.01 Z"/>
<rect fill="#023c95" x="-5.04" y="-5.04" transform="translate(141.78,66.91) rotate(-0.2)" width="10.08" height="10.08" rx="0.69"/>
<path fill="#0159bf" d="M 147.44 114.61 C 144.42 117.88 140.87 119.59 136.78 119.73 C 137.04 118.98 137.17 118.40 137.17 117.98 C 137.08 104.31 137.06 91.16 137.10 78.53 C 137.10 78.29 137.29 78.10 137.53 78.10 L 146.83 78.10 C 147.12 78.10 147.35 78.33 147.35 78.61 L 147.44 114.61 Z"/>
<path fill="#0159bf" d="M 30.53 84.19 L 30.58 119.23 C 27.78 120.24 24.77 120.76 21.55 120.77 L 21.52 81.50 C 24.71 81.79 27.71 82.69 30.53 84.19 Z"/>
<path fill="#0159bf" d="M 66.51 81.57 L 87.98 82.03 C 88.47 82.05 88.81 82.52 88.66 82.99 L 84.73 95.47 C 84.57 95.99 84.09 96.34 83.55 96.34 L 66.51 96.32 L 49.71 96.46 L 49.68 83.25 L 66.51 81.57 Z"/>
<path fill="#1b87d7" d="M 127.33 90.01 C 127.25 94.35 127.23 98.68 127.27 103.00 C 127.30 106.35 127.03 108.49 126.46 109.40 C 124.84 111.96 122.04 112.65 118.85 112.64 C 114.36 112.62 111.15 112.63 109.22 112.67 C 108.89 112.68 108.62 112.41 108.62 112.08 L 108.61 95.10 C 111.71 94.12 115.77 93.20 120.78 92.34 C 122.65 92.02 124.83 91.24 127.33 90.01 Z"/>
<path fill="#1b87d7" d="M 95.14 95.89 L 95.16 111.96 C 95.16 112.34 94.86 112.64 94.48 112.64 L 78.72 112.64 C 78.43 112.64 78.19 112.40 78.19 112.10 L 78.19 99.44 C 78.19 99.04 78.54 98.74 78.93 98.80 C 84.56 99.65 87.58 98.65 87.97 95.80 L 95.14 95.89 Z"/>
<path fill="#023c95" d="M 66.51 96.32 C 66.56 103.15 66.54 107.52 66.43 109.44 C 66.36 110.80 65.63 111.82 64.26 112.51 C 64.05 112.62 63.82 112.67 63.58 112.67 L 50.36 112.67 C 50.02 112.67 49.75 112.39 49.74 112.05 L 49.71 96.46 L 66.51 96.32 Z"/>
<path fill="#014aa6" d="M 147.44 114.61 L 147.38 124.14 C 147.38 124.45 147.33 124.76 147.22 125.05 C 145.59 129.51 142.49 130.66 137.59 130.69 C 125.12 130.76 112.68 130.66 100.27 130.38 C 90.24 129.56 80.19 129.58 70.13 130.43 L 28.92 130.67 C 28.65 130.67 28.39 130.64 28.13 130.57 C 23.29 129.34 21.10 126.08 21.55 120.77 C 24.77 120.76 27.78 120.24 30.58 119.23 C 31.28 120.07 32.08 120.64 32.99 120.93 C 38.05 122.67 43.48 123.40 49.27 123.11 C 55.30 122.80 58.44 122.65 58.68 122.65 C 80.96 122.55 103.24 122.63 125.52 122.88 C 128.37 122.92 134.71 123.20 136.27 120.27 C 136.40 120.06 136.57 119.88 136.78 119.73 C 140.87 119.59 144.42 117.88 147.44 114.61 Z"/>
<path fill="#023c95" d="M 136.27 120.27 C 134.71 123.20 128.37 122.92 125.52 122.88 C 103.24 122.63 80.96 122.55 58.68 122.65 C 58.44 122.65 55.30 122.80 49.27 123.11 C 43.48 123.40 38.05 122.67 32.99 120.93 C 67.10 120.82 101.02 120.74 134.75 120.67 C 135.15 120.67 135.66 120.54 136.27 120.27 Z"/>
<path fill="#1b87d7" d="M 100.27 130.38 C 100.26 130.55 100.26 130.72 100.25 130.89 L 70.08 130.87 C 70.18 130.93 70.20 130.78 70.13 130.43 C 80.19 129.58 90.24 129.56 100.27 130.38 Z"/>
<path fill="#023c95" d="M 100.25 130.89 C 101.58 134.43 101.80 136.36 105.14 139.42 C 108.12 142.15 112.31 142.88 117.19 144.05 C 118.32 144.32 118.94 144.82 119.03 145.54 C 119.09 145.94 118.78 146.30 118.37 146.30 L 52.19 146.20 C 51.60 146.20 51.27 145.53 51.62 145.06 L 51.65 145.01 C 52.23 144.27 53.07 143.77 53.99 143.64 C 63.59 142.24 68.95 137.98 70.08 130.87 L 100.25 130.89 Z"/>
</svg>
