<?xml version="1.0" encoding="UTF-8"?>
<svg xmlns="http://www.w3.org/2000/svg" viewBox="0 0 500 500" role="img" aria-labelledby="title">
  <title>FH Development Studio icon</title>
  <defs>
    <style>.cls-1{fill:#2f84c6;}.cls-2{fill:#33a2db;}.cls-3{fill:#0f4b9e;}</style>
    <filter id="shadow" x="-20%" y="-20%" width="140%" height="140%">
      <feDropShadow dx="0" dy="12" stdDeviation="16" flood-color="#103a83" flood-opacity="0.14"/>
    </filter>
  </defs>
  <rect x="28" y="28" width="444" height="444" rx="94" fill="#ffffff" filter="url(#shadow)"/>
  <g transform="translate(50 50) scale(0.8)">
<path class="cls-1" d="M434.863,95.454c0,.874-.718,1.592-1.592,1.592h-35.211c-.874,0-1.592-.718-1.592-1.592v-33.525c0-.874.718-1.592,1.592-1.592h35.211c.874,0,1.592.718,1.592,1.592v33.525h0Z"/><path class="cls-1" d="M486.387,92.904c.012.802-.643,1.426-1.433,1.438l-21.539.037c-.802.013-1.426-.643-1.438-1.433l-.038-21.539c-.012-.802.643-1.426,1.433-1.438l21.538-.038c.802-.012,1.426.643,1.438,1.433l.038,21.539h0Z"/><path class="cls-3" d="M283.127,385.755c-34.337-2.185-68.736-2.154-103.197.094-70.577,1.124-116.807,1.436-138.689.937-9.209-.219-16.7-4.277-22.444-12.143-3.621-4.963-5.275-13.485-4.994-25.565.375-15.358.312-88.214-.187-218.537-.062-15.389,1.155-25.409,3.683-30.123,4.838-9.021,13.423-13.641,25.752-13.797,35.367-.499,128.544-.624,279.594-.343.312,0,.562.25.562.562v28.437c0,.343-.281.624-.624.624-152.486-.156-237.173-.281-254.06-.437-14.328-.156-24.036,1.779-23.942,17.855.344,71.545.344,141.748.062,210.609-.031,5.182,4.183,9.396,9.365,9.396,140.374-.031,245.101-.062,314.18-.094,12.705,0,23.162-.187,31.371-.593,6.056-.312,8.116-5.681,8.085-11.269-.406-47.79-.562-92.022-.437-132.664.031-.656.531-1.186,1.186-1.186h32.464c.812,0,1.467.656,1.498,1.498.281,46.417.406,96.798.312,151.144-.031,13.048-9.396,22.881-21.32,25.94-1.779.468-8.615.687-20.571.655-39.269-.094-78.475-.437-117.65-.999h0Z"/><path class="cls-2" d="M348.179,146.303v-42.609c0-1.093.874-1.967,1.967-1.967h42.64c1.093,0,1.967.874,1.967,1.967v42.609c0,1.093-.874,1.967-1.967,1.967h-42.64c-1.093,0-1.967-.874-1.967-1.967h0Z"/><path class="cls-1" d="M434.739,108.346h26.907c.874,0,1.592.718,1.592,1.592v28.687c0,.874-.718,1.592-1.592,1.592h-26.907c-.874,0-1.592-.718-1.592-1.592v-28.687c0-.874.718-1.592,1.592-1.592h0Z"/><path class="cls-3" d="M242.484,223.436l-13.423,43.295c-.437,1.436-1.779,2.404-3.278,2.404h-56.968c-.905,0-1.623.718-1.623,1.623-.031,5.4-.125,19.822-.219,43.202,0,3.34-2.372,6.867-7.086,10.52-.687.531-1.53.812-2.404.812h-46.074c-.936,0-1.717-.749-1.686-1.686.25-52.129.219-103.978-.094-155.576-.031-4.401,2.622-9.052,7.96-14.016,10.426-9.739,23.661-8.522,37.802-8.366,21.414.281,58.841.062,112.25-.593,1.81,0,3.09,1.748,2.56,3.465l-11.269,36.334c-.343,1.155-1.405,1.935-2.622,1.935h-87.153c-1.124,0-2.06.937-2.06,2.06v28.094c0,1.966,1.592,3.558,3.559,3.558h69.672c1.53,0,2.622,1.467,2.154,2.934h0Z"/><path class="cls-2" d="M373.842,253.241l-63.197,12.14-44.779-22.233-16.441-3.989,4.856-16.58c.243-.937,1.11-1.561,2.047-1.561h51.439c1.769,0,3.226-1.457,3.226-3.226v-67.672c0-1.11.867-1.977,1.977-1.977h31.945c1.041,0,1.908.832,1.908,1.908v15.331c0,1.492,1.214,2.706,2.706,2.706h21.436c1.353,0,2.393,1.075,2.428,2.393l.451,82.76Z"/><path class="cls-3" d="M440.589,184.859c.018.994-.793,1.806-1.798,1.823l-30.653.214c-.994.018-1.805-.793-1.823-1.798l-.214-30.653c-.018-.994.793-1.805,1.798-1.823l30.653-.214c.994-.018,1.806.793,1.823,1.798l.214,30.653h0Z"/><path class="cls-1" d="M265.033,266.422c-.312.347-.486.763-.486,1.249v54.803c0,1.387-1.075,2.463-2.463,2.463h-54.11c-.624,0-1.11-.485-1.11-1.11v-43.635c0-.937.798-1.7,1.734-1.7h25.321c1.873,0,3.503-1.179,4.058-2.948l2.74-8.567,24.315-.555Z"/><path class="cls-1" d="M373.838,253.246c-.156,16.357-.094,32.682.187,48.977.375,18.885-15.764,23.536-33.119,22.849-5.775-.218-15.264-.125-28.499.281-.968.031-1.779-.78-1.779-1.748l.031-58.216,63.179-12.143h0Z"/><path class="cls-3" d="M282.533,388.314c3.715,20.134,15.701,32.994,35.929,38.519,15.576,4.245,23.411,6.399,23.567,6.462,2.653.936,3.871,2.528,3.621,4.776-.094.905-.874,1.592-1.81,1.592l-225.623-.468c-1.717,0-2.934-1.686-2.404-3.309l.031-.125c.718-2.092,2.56-3.621,4.745-3.964,36.366-5.619,55.844-20.571,58.435-44.887,34.93-.218,68.829-.187,101.699.125.749,0,1.342.437,1.81,1.28h0Z"/>
  </g>
</svg>
