<?xml version="1.0" encoding="UTF-8" standalone="no"?>
<!DOCTYPE svg PUBLIC "-//W3C//DTD SVG 1.1//EN" "http://www.w3.org/Graphics/SVG/1.1/DTD/svg11.dtd">
<svg xmlns="http://www.w3.org/2000/svg" version="1.1" viewBox="0.00 0.00 768.00 512.00" width="768.00" height="512.00">
<g stroke-width="2.00" fill="none" stroke-linecap="butt">
<path stroke="#e4e3e5" vector-effect="non-scaling-stroke" d="M 12.38 0.00 L 1.48 0.12 C 1.16 0.13 0.91 0.38 0.91 0.69 L 0.91 510.51 C 0.91 510.85 1.19 511.13 1.53 511.13 L 766.62 511.13 C 766.86 511.13 767.06 510.93 767.06 510.68 L 767.06 0.74 C 767.06 0.44 766.83 0.20 766.54 0.19 L 762.44 0.00"/>
<path stroke="#8cc3eb" vector-effect="non-scaling-stroke" d="M 251.86 187.22 C 251.86 186.94 251.63 186.71 251.35 186.71 L 240.07 186.71 C 239.79 186.71 239.56 186.94 239.56 187.22 L 239.56 197.96 C 239.56 198.24 239.79 198.47 240.07 198.47 L 251.35 198.47 C 251.63 198.47 251.86 198.24 251.86 197.96 L 251.86 187.22"/>
<path stroke="#8cc3eb" vector-effect="non-scaling-stroke" d="M 268.3540 190.2432 C 268.35 189.99 268.15 189.78 267.8932 189.7840 L 260.9932 189.7960 C 260.74 189.80 260.53 190.00 260.5340 190.2568 L 260.5460 197.1568 C 260.55 197.41 260.75 197.62 261.0068 197.6160 L 267.9068 197.6040 C 268.16 197.60 268.37 197.40 268.3660 197.1432 L 268.3540 190.2432"/>
<path stroke="#e4e3e5" vector-effect="non-scaling-stroke" d="M 170.19 290.99 C 170.09 291.10 169.99 291.22 169.90 291.33"/>
<path stroke="#84a4d0" vector-effect="non-scaling-stroke" d="M 169.90 291.33 C 169.07 299.12 162.83 303.91 151.18 305.71 C 150.48 305.82 149.89 306.31 149.66 306.98 L 149.65 307.02 C 149.48 307.54 149.87 308.08 150.42 308.08 L 222.70 308.23 C 223.00 308.23 223.25 308.01 223.28 307.72 C 223.36 307.00 222.97 306.49 222.12 306.19 C 222.07 306.17 219.56 305.48 214.57 304.12 C 208.09 302.35 204.25 298.23 203.06 291.78"/>
<path stroke="#e4e3e5" vector-effect="non-scaling-stroke" d="M 203.06 291.78 C 203.18 291.62 203.24 291.35 203.25 290.96"/>
<path stroke="#84a4d0" vector-effect="non-scaling-stroke" d="M 203.25 290.96 C 215.80 291.14 228.36 291.25 240.94 291.28 C 244.77 291.29 246.96 291.22 247.53 291.07 C 251.35 290.09 254.35 286.94 254.36 282.76 C 254.39 265.35 254.35 249.21 254.26 234.34 C 254.25 234.07 254.04 233.86 253.78 233.86 L 243.38 233.86 C 243.17 233.86 243.01 234.03 243.00 234.24 C 242.96 247.26 243.01 261.43 243.14 276.74 C 243.15 278.53 242.49 280.25 240.55 280.35 C 237.92 280.48 234.57 280.54 230.50 280.54 C 208.37 280.55 174.82 280.56 129.85 280.57 C 128.19 280.57 126.84 279.22 126.85 277.56 C 126.94 255.50 126.94 233.01 126.83 210.09 C 126.80 204.94 129.91 204.32 134.50 204.37 C 139.91 204.42 167.04 204.46 215.89 204.51 C 216.00 204.51 216.09 204.42 216.09 204.31 L 216.09 195.20 C 216.09 195.10 216.01 195.02 215.91 195.02 C 167.52 194.93 137.67 194.97 126.34 195.13 C 122.39 195.18 119.64 196.66 118.09 199.55 C 117.28 201.06 116.89 204.27 116.91 209.20 C 117.07 250.95 117.09 274.29 116.97 279.21 C 116.88 283.08 117.41 285.81 118.57 287.40 C 120.41 289.92 122.81 291.22 125.76 291.29 C 132.77 291.45 147.58 291.35 170.19 290.99"/>
<path stroke="#6888b6" vector-effect="non-scaling-stroke" d="M 203.25 290.96 C 192.25 290.26 181.23 290.27 170.19 290.99"/>
<path stroke="#6888b6" vector-effect="non-scaling-stroke" d="M 203.06 291.78 C 202.91 291.51 202.72 291.37 202.48 291.37 C 191.95 291.27 181.09 291.26 169.90 291.33"/>
<path stroke="#8ed2f4" vector-effect="non-scaling-stroke" d="M 224.09 214.25 C 224.09 214.60 224.37 214.88 224.72 214.88 L 238.38 214.88 C 238.73 214.88 239.01 214.60 239.01 214.25 L 239.01 200.60 C 239.01 200.25 238.73 199.97 238.38 199.97 L 224.72 199.97 C 224.37 199.97 224.09 200.25 224.09 200.60 L 224.09 214.25"/>
<path stroke="#8cc3eb" vector-effect="non-scaling-stroke" d="M 251.82 202.09 C 251.54 202.09 251.31 202.32 251.31 202.60 L 251.31 211.79 C 251.31 212.07 251.54 212.30 251.82 212.30 L 260.44 212.30 C 260.72 212.30 260.95 212.07 260.95 211.79 L 260.95 202.60 C 260.95 202.32 260.72 202.09 260.44 202.09 L 251.82 202.09"/>
<path stroke="#84a4d0" vector-effect="non-scaling-stroke" d="M 189.54 238.02 L 167.22 238.02 C 166.59 238.02 166.08 237.51 166.08 236.88 L 166.08 227.88 C 166.08 227.52 166.38 227.22 166.74 227.22 L 194.66 227.22 C 195.05 227.22 195.39 226.97 195.50 226.60 L 199.11 214.96 C 199.28 214.41 198.87 213.85 198.29 213.85 C 181.18 214.06 169.19 214.13 162.33 214.04 C 157.80 213.99 153.56 213.60 150.22 216.72 C 148.51 218.31 147.66 219.80 147.67 221.21 C 147.77 237.74 147.78 254.35 147.70 271.05 C 147.69 271.35 147.94 271.59 148.24 271.59 L 163.00 271.59 C 163.28 271.59 163.55 271.50 163.77 271.33 C 165.28 270.16 166.04 269.03 166.04 267.96 C 166.07 260.47 166.10 255.85 166.11 254.12 C 166.11 253.83 166.34 253.60 166.63 253.60 L 184.88 253.60 C 185.36 253.60 185.79 253.29 185.93 252.83 L 190.23 238.96 C 190.38 238.49 190.03 238.02 189.54 238.02"/>
<path stroke="#8cc3eb" vector-effect="non-scaling-stroke" d="M 192.01 245.52 L 188.79 255.65 C 188.61 256.22 188.09 256.60 187.49 256.60 L 179.37 256.60 C 179.07 256.60 178.82 256.84 178.82 257.14 L 178.82 271.12 C 178.82 271.32 178.98 271.48 179.18 271.48 L 196.51 271.48 C 196.95 271.48 197.30 271.13 197.30 270.69 L 197.30 253.13 C 197.30 252.80 197.55 252.53 197.87 252.51 L 201.22 252.32"/>
<path stroke="#8ed2f4" vector-effect="non-scaling-stroke" d="M 201.22 252.32 L 212.07 252.40"/>
<path stroke="#8cc3eb" vector-effect="non-scaling-stroke" d="M 212.07 252.40 L 212.06 271.05 C 212.06 271.36 212.32 271.62 212.63 271.61 C 216.87 271.48 219.91 271.45 221.76 271.52 C 227.32 271.74 232.49 270.25 232.37 264.20 C 232.28 258.98 232.26 253.75 232.31 248.51"/>
<path stroke="#8ed2f4" vector-effect="non-scaling-stroke" d="M 232.31 248.51 L 232.17 222.00 C 232.16 221.57 231.82 221.23 231.39 221.23 L 224.52 221.23 C 224.04 221.23 223.65 220.84 223.65 220.36 L 223.65 215.45 C 223.65 215.11 223.38 214.84 223.04 214.84 L 212.81 214.84 C 212.46 214.84 212.18 215.12 212.18 215.47 L 212.18 237.15 C 212.18 237.72 211.71 238.19 211.14 238.19 L 194.66 238.19 C 194.36 238.19 194.09 238.39 194.01 238.68 L 192.01 245.52"/>
<path stroke="#1b95e0" vector-effect="non-scaling-stroke" d="M 232.31 248.51 L 212.07 252.40"/>
<path stroke="#1b95e0" vector-effect="non-scaling-stroke" d="M 201.22 252.32 L 191.71 252.39 C 191.33 252.40 191.04 252.06 191.09 251.69 L 192.01 245.52"/>
<path stroke="#84a4d0" vector-effect="non-scaling-stroke" d="M 253.6256 216.7818 C 253.62 216.46 253.36 216.20 253.0416 216.2059 L 243.2218 216.2744 C 242.90 216.28 242.64 216.54 242.6459 216.8584 L 242.7144 226.6782 C 242.72 227.00 242.98 227.26 243.2984 227.2541 L 253.1182 227.1856 C 253.44 227.18 253.70 226.92 253.6941 226.6016 L 253.6256 216.7818"/>
<path stroke="#84a4d0" vector-effect="non-scaling-stroke" d="M 286.03 233.80 C 286.03 233.50 286.28 233.25 286.58 233.25 L 301.84 233.25 C 302.14 233.25 302.39 233.00 302.39 232.70 L 302.39 224.83 C 302.39 224.53 302.14 224.28 301.84 224.28 L 275.99 224.28 C 275.69 224.28 275.44 224.53 275.44 224.83 L 275.44 261.49 C 275.44 261.79 275.69 262.04 275.99 262.04 L 285.52 262.04 C 285.82 262.04 286.07 261.79 286.07 261.49 L 286.07 250.10 C 286.07 249.80 286.32 249.55 286.62 249.55 L 297.60 249.55 C 297.90 249.55 298.15 249.30 298.15 249.00 L 298.15 241.11 C 298.15 240.81 297.90 240.56 297.60 240.56 L 286.58 240.56 C 286.28 240.56 286.03 240.31 286.03 240.01 L 286.03 233.80"/>
<path stroke="#84a4d0" vector-effect="non-scaling-stroke" d="M 320.69 248.54 C 323.04 248.54 324.42 248.56 324.81 248.60 C 325.06 248.62 325.24 248.82 325.24 249.06 L 325.24 261.47 C 325.24 261.78 325.49 262.04 325.80 262.04 L 335.18 262.04 C 335.52 262.04 335.79 261.77 335.79 261.43 L 335.79 224.95 C 335.79 224.59 335.50 224.30 335.14 224.30 L 325.78 224.30 C 325.45 224.30 325.19 224.56 325.19 224.89 L 325.19 239.08 C 325.19 239.37 324.96 239.62 324.67 239.64 C 323.97 239.70 322.64 239.73 320.69 239.73 C 318.73 239.73 317.40 239.70 316.70 239.64 C 316.41 239.62 316.18 239.37 316.18 239.08 L 316.19 224.89 C 316.19 224.56 315.92 224.30 315.60 224.30 L 306.24 224.30 C 305.88 224.30 305.59 224.59 305.59 224.95 L 305.58 261.43 C 305.58 261.76 305.85 262.04 306.19 262.04 L 315.57 262.04 C 315.88 262.04 316.13 261.78 316.13 261.47 L 316.13 249.06 C 316.13 248.82 316.31 248.62 316.56 248.60 C 316.95 248.56 318.33 248.54 320.69 248.54"/>
<path stroke="#84a4d0" vector-effect="non-scaling-stroke" d="M 353.04 225.69 L 352.98 261.21 C 352.98 261.54 353.25 261.82 353.59 261.82 L 367.25 261.84 C 373.49 261.85 378.57 256.98 378.58 250.95 L 378.60 236.03 C 378.61 230.01 373.56 225.11 367.31 225.10 L 353.65 225.08 C 353.32 225.08 353.04 225.35 353.04 225.69"/>
<path stroke="#84a4d0" vector-effect="non-scaling-stroke" d="M 504.7568 236.0074 C 504.75 229.91 499.79 224.98 493.6976 224.9867 L 489.8576 224.9934 C 483.76 225.00 478.83 229.96 478.8369 236.0526 L 478.8632 251.1126 C 478.87 257.21 483.83 262.14 489.9224 262.1333 L 493.7624 262.1266 C 499.86 262.12 504.79 257.16 504.7831 251.0674 L 504.7568 236.0074"/>
<path stroke="#84a4d0" vector-effect="non-scaling-stroke" d="M 401.90 232.21 C 402.19 232.20 402.42 231.97 402.42 231.68 L 402.41 225.67 C 402.40 225.32 402.13 225.05 401.79 225.05 L 382.86 225.23 C 382.57 225.24 382.34 225.47 382.34 225.76 L 382.46 261.22 C 382.45 261.49 382.68 261.72 382.95 261.72 L 401.81 261.64 C 402.18 261.64 402.47 261.34 402.47 260.98 L 402.42 255.25 C 402.41 254.93 402.15 254.66 401.82 254.67 L 391.54 254.78 C 391.15 254.78 390.83 254.47 390.83 254.07 L 390.84 247.98 C 390.84 247.56 391.19 247.21 391.62 247.20 L 400.14 247.03 C 400.41 247.02 400.63 246.80 400.63 246.53 L 400.59 240.71 C 400.59 240.42 400.35 240.18 400.05 240.18 L 391.47 240.14 C 391.08 240.14 390.76 239.82 390.76 239.43 L 390.69 233.04 C 390.68 232.66 391.00 232.34 391.39 232.33 L 401.90 232.21"/>
<path stroke="#84a4d0" vector-effect="non-scaling-stroke" d="M 418.99 251.67 L 413.49 225.76 C 413.43 225.49 413.19 225.29 412.92 225.29 L 404.88 225.29 C 404.67 225.29 404.52 225.49 404.57 225.69 L 413.41 261.52 C 413.47 261.76 413.69 261.93 413.94 261.93 L 423.44 261.93 C 423.72 261.93 423.97 261.74 424.04 261.46 L 432.77 225.70 C 432.81 225.56 432.69 225.42 432.54 225.42 L 424.49 225.42 C 424.34 225.42 424.21 225.53 424.19 225.67 L 419.15 251.67 C 419.13 251.76 419.01 251.76 418.99 251.67"/>
<path stroke="#84a4d0" vector-effect="non-scaling-stroke" d="M 454.65 254.72 L 444.17 254.68 C 443.78 254.68 443.46 254.36 443.47 253.97 L 443.48 247.61 C 443.48 247.21 443.80 246.89 444.19 246.89 L 452.74 246.79 C 453.04 246.78 453.28 246.54 453.28 246.24 L 453.27 240.44 C 453.27 240.17 453.05 239.95 452.78 239.95 L 444.27 239.85 C 443.85 239.84 443.50 239.50 443.49 239.07 L 443.44 233.00 C 443.44 232.61 443.75 232.29 444.14 232.29 L 454.39 232.32 C 454.72 232.32 454.98 232.06 454.98 231.73 L 454.99 226.01 C 454.99 225.65 454.69 225.36 454.33 225.36 L 435.52 225.44 C 435.24 225.44 435.02 225.67 435.03 225.94 L 435.20 261.30 C 435.20 261.59 435.43 261.82 435.72 261.82 L 454.60 261.86 C 454.93 261.86 455.21 261.58 455.21 261.24 L 455.17 255.24 C 455.18 254.95 454.94 254.72 454.65 254.72"/>
<path stroke="#84a4d0" vector-effect="non-scaling-stroke" d="M 467.27 226.09 C 467.27 225.74 466.99 225.46 466.64 225.46 L 459.37 225.46 C 459.02 225.46 458.74 225.74 458.74 226.09 L 458.74 261.16 C 458.74 261.51 459.02 261.79 459.37 261.79 L 477.35 261.79 C 477.70 261.79 477.98 261.51 477.98 261.16 L 477.98 255.50 C 477.98 255.15 477.70 254.87 477.35 254.87 L 467.90 254.87 C 467.55 254.87 467.27 254.59 467.27 254.24 L 467.27 226.09"/>
<path stroke="#84a4d0" vector-effect="non-scaling-stroke" d="M 508.97 261.85 L 516.49 261.85 C 516.71 261.85 516.88 261.68 516.88 261.46 L 516.88 251.11 C 516.88 250.86 517.08 250.66 517.33 250.66 C 521.04 250.68 523.91 250.45 525.95 249.97 C 529.79 249.07 532.71 245.70 532.79 241.66 C 532.89 235.73 533.69 229.41 527.52 226.50 C 525.67 225.63 522.60 225.27 518.31 225.43 C 515.61 225.54 512.47 225.60 508.89 225.61 C 508.67 225.61 508.50 225.79 508.50 226.01 L 508.50 261.37 C 508.50 261.64 508.71 261.85 508.97 261.85"/>
<path stroke="#84a4d0" vector-effect="non-scaling-stroke" d="M 551.80 253.46 C 553.03 253.46 553.88 253.45 554.36 253.44 C 554.69 253.43 554.98 253.23 555.09 252.92 L 559.39 241.16 C 559.47 240.95 559.77 241.01 559.77 241.23 L 559.77 261.18 C 559.77 261.56 560.07 261.86 560.45 261.86 L 567.05 261.86 C 567.43 261.86 567.74 261.55 567.74 261.16 L 567.74 226.31 C 567.74 225.93 567.43 225.62 567.05 225.62 L 560.16 225.62 C 559.72 225.62 559.32 225.88 559.14 226.29 C 556.05 233.48 553.72 239.25 552.16 243.60 C 552.10 243.75 551.98 243.83 551.79 243.83 C 551.60 243.83 551.48 243.75 551.43 243.60 C 549.85 239.25 547.52 233.49 544.41 226.31 C 544.23 225.90 543.83 225.64 543.39 225.64 L 536.50 225.65 C 536.11 225.65 535.81 225.96 535.81 226.34 L 535.88 261.19 C 535.88 261.58 536.19 261.89 536.57 261.89 L 543.17 261.88 C 543.55 261.88 543.85 261.57 543.85 261.20 L 543.81 241.25 C 543.81 241.03 544.11 240.97 544.19 241.18 L 548.51 252.93 C 548.62 253.23 548.91 253.44 549.25 253.45 C 549.73 253.46 550.58 253.46 551.80 253.46"/>
<path stroke="#84a4d0" vector-effect="non-scaling-stroke" d="M 591.78 261.82 C 592.11 261.82 592.37 261.56 592.37 261.23 L 592.37 255.28 C 592.37 254.95 592.11 254.69 591.78 254.69 L 581.27 254.69 C 580.94 254.69 580.68 254.43 580.68 254.10 L 580.68 247.45 C 580.68 247.12 580.94 246.86 581.27 246.86 L 589.85 246.86 C 590.18 246.86 590.44 246.60 590.44 246.27 L 590.44 240.52 C 590.44 240.19 590.18 239.93 589.85 239.93 L 581.25 239.93 C 580.92 239.93 580.66 239.67 580.66 239.34 L 580.66 232.95 C 580.66 232.62 580.92 232.36 581.25 232.36 L 591.54 232.36 C 591.87 232.36 592.13 232.10 592.13 231.77 L 592.13 226.07 C 592.13 225.74 591.87 225.48 591.54 225.48 L 572.91 225.48 C 572.58 225.48 572.32 225.74 572.32 226.07 L 572.32 261.23 C 572.32 261.56 572.58 261.82 572.91 261.82 L 591.78 261.82"/>
<path stroke="#84a4d0" vector-effect="non-scaling-stroke" d="M 606.43 245.25 C 608.88 250.35 611.68 255.75 614.83 261.45 C 614.98 261.74 615.28 261.91 615.60 261.91 L 622.05 261.91 C 622.45 261.91 622.77 261.59 622.77 261.19 L 622.77 225.99 C 622.77 225.80 622.62 225.65 622.43 225.65 L 614.98 225.65 C 614.76 225.65 614.58 225.83 614.58 226.05 L 614.58 245.62 C 614.58 245.95 614.13 246.05 614.00 245.75 C 613.36 244.32 612.83 243.18 612.41 242.31 C 609.97 237.21 607.17 231.80 604.01 226.10 C 603.86 225.82 603.57 225.64 603.25 225.64 L 596.80 225.64 C 596.40 225.64 596.08 225.96 596.08 226.36 L 596.08 261.56 C 596.08 261.75 596.23 261.90 596.42 261.90 L 603.87 261.90 C 604.09 261.90 604.27 261.72 604.27 261.50 L 604.27 241.93 C 604.27 241.60 604.71 241.51 604.85 241.81 C 605.49 243.23 606.02 244.37 606.43 245.25"/>
<path stroke="#84a4d0" vector-effect="non-scaling-stroke" d="M 637.60 261.87 C 640.15 261.86 641.43 261.86 641.45 261.86 C 641.71 261.83 641.91 261.61 641.91 261.34 L 641.92 232.95 C 641.92 232.64 642.17 232.39 642.48 232.39 L 648.80 232.39 C 649.19 232.39 649.51 232.07 649.51 231.68 L 649.51 226.26 C 649.51 225.91 649.22 225.63 648.87 225.63 C 645.25 225.66 641.47 225.68 637.51 225.69 C 633.54 225.70 629.76 225.70 626.14 225.69 C 625.79 225.69 625.50 225.97 625.50 226.32 L 625.53 231.74 C 625.53 232.13 625.85 232.45 626.25 232.45 L 632.57 232.42 C 632.87 232.41 633.13 232.66 633.13 232.97 L 633.29 261.36 C 633.29 261.63 633.49 261.85 633.75 261.88 C 633.77 261.88 635.05 261.88 637.60 261.87"/>
<path stroke="#8cc3eb" vector-effect="non-scaling-stroke" d="M 391.21 275.66 C 387.33 274.19 378.68 274.26 379.94 280.59 C 380.51 283.47 385.26 284.20 388.18 285.00 C 389.26 285.30 389.27 286.82 388.20 287.14 C 385.83 287.85 383.48 287.75 381.15 286.84 C 380.75 286.68 380.31 286.92 380.23 287.34 L 380.01 288.46 C 379.95 288.79 380.12 289.11 380.43 289.24 C 383.27 290.44 389.88 291.32 391.73 288.42 C 393.12 286.25 393.07 284.39 391.58 282.84 C 390.12 281.33 386.44 280.95 384.26 280.42 C 382.95 280.10 382.95 278.24 384.26 277.93 C 386.27 277.44 388.30 277.52 390.36 278.17 C 390.82 278.31 391.30 278.03 391.39 277.56 L 391.62 276.39 C 391.68 276.08 391.50 275.77 391.21 275.66"/>
<path stroke="#8cc3eb" vector-effect="non-scaling-stroke" d="M 408.92 290.12 C 409.35 290.12 409.73 290.10 410.05 290.06 C 410.39 290.01 410.65 289.72 410.65 289.37 L 410.65 278.70 C 410.65 278.30 410.98 277.98 411.38 277.98 L 414.69 277.98 C 415.24 277.98 415.69 277.53 415.69 276.98 L 415.69 275.80 C 415.69 275.26 415.24 274.83 414.71 274.86 C 413.28 274.94 411.33 274.98 408.87 274.98 C 406.40 274.99 404.46 274.97 403.03 274.90 C 402.49 274.88 402.05 275.31 402.05 275.84 L 402.06 277.02 C 402.06 277.58 402.51 278.02 403.06 278.02 L 406.37 278.00 C 406.78 277.99 407.10 278.31 407.11 278.71 L 407.18 289.38 C 407.18 289.73 407.44 290.02 407.78 290.07 C 408.10 290.10 408.48 290.12 408.92 290.12"/>
<path stroke="#8cc3eb" vector-effect="non-scaling-stroke" d="M 432.28 290.27 C 435.14 290.28 438.77 288.97 439.04 286.23 C 439.19 284.66 439.25 281.16 439.20 275.74 C 439.20 275.31 438.86 274.97 438.43 274.97 L 436.43 274.97 C 435.99 274.97 435.63 275.34 435.64 275.78 C 435.71 278.29 435.73 280.94 435.69 283.73 C 435.66 286.06 434.60 287.45 432.29 287.44 C 429.98 287.43 428.93 286.03 428.91 283.71 C 428.89 280.92 428.92 278.27 429.01 275.76 C 429.03 275.31 428.67 274.95 428.23 274.94 L 426.23 274.93 C 425.80 274.93 425.46 275.27 425.45 275.70 C 425.37 281.12 425.40 284.61 425.55 286.19 C 425.80 288.93 429.43 290.26 432.28 290.27"/>
<path stroke="#8cc3eb" vector-effect="non-scaling-stroke" d="M 450.41 275.61 L 450.43 289.47 C 450.43 289.84 450.73 290.14 451.10 290.14 L 458.28 290.13 C 462.59 290.12 466.07 286.75 466.06 282.59 L 466.06 282.45 C 466.05 278.29 462.56 274.92 458.26 274.93 L 451.08 274.94 C 450.71 274.94 450.41 275.24 450.41 275.61"/>
<path stroke="#8cc3eb" vector-effect="non-scaling-stroke" d="M 490.8551 282.0264 C 490.53 286.30 494.06 290.06 498.7547 290.4171 C 503.45 290.78 507.52 287.61 507.8449 283.3336 C 508.17 279.06 504.64 275.30 499.9453 274.9429 C 495.25 274.58 491.18 277.75 490.8551 282.0264"/>
<path stroke="#8cc3eb" vector-effect="non-scaling-stroke" d="M 480.3177 275.6369 C 480.32 275.41 480.13 275.23 479.9070 275.2276 L 477.1070 275.2325 C 476.88 275.23 476.70 275.42 476.6977 275.6432 L 476.7223 289.7631 C 476.72 289.99 476.91 290.17 477.1330 290.1724 L 479.9330 290.1675 C 480.16 290.17 480.34 289.98 480.3423 289.7568 L 480.3177 275.6369"/>
<path stroke="#8cc3eb" vector-effect="non-scaling-stroke" d="M 366.68 279.99 C 366.68 279.71 366.45 279.48 366.17 279.48 L 275.75 279.48 C 275.47 279.48 275.24 279.71 275.24 279.99 L 275.24 282.03 C 275.24 282.31 275.47 282.54 275.75 282.54 L 366.17 282.54 C 366.45 282.54 366.68 282.31 366.68 282.03 L 366.68 279.99"/>
<path stroke="#8cc3eb" vector-effect="non-scaling-stroke" d="M 641.89 280.14 C 641.89 279.79 641.60 279.50 641.25 279.50 L 524.05 279.50 C 523.70 279.50 523.41 279.79 523.41 280.14 L 523.41 281.88 C 523.41 282.23 523.70 282.52 524.05 282.52 L 641.25 282.52 C 641.60 282.52 641.89 282.23 641.89 281.88 L 641.89 280.14"/>
<path stroke="#84a4d0" vector-effect="non-scaling-stroke" d="M 361.67 232.65 L 361.63 254.59 C 361.63 254.86 361.84 255.07 362.11 255.07 L 365.26 255.08 C 367.92 255.08 370.07 252.87 370.08 250.14 L 370.10 237.14 C 370.11 234.40 367.96 232.18 365.30 232.18 L 362.15 232.17 C 361.88 232.17 361.67 232.39 361.67 232.65"/>
<path stroke="#84a4d0" vector-effect="non-scaling-stroke" d="M 496.2198 235.9530 C 496.23 233.71 494.42 231.87 492.1712 231.8618 L 491.5512 231.8585 C 489.30 231.85 487.47 233.66 487.4599 235.9072 L 487.3802 251.1270 C 487.37 253.37 489.18 255.21 491.4288 255.2182 L 492.0488 255.2215 C 494.30 255.23 496.13 253.42 496.1401 251.1728 L 496.2198 235.9530"/>
<path stroke="#84a4d0" vector-effect="non-scaling-stroke" d="M 516.86 233.18 L 517.00 242.96 C 517.01 243.45 517.40 243.84 517.89 243.83 L 521.37 243.78 C 523.07 243.76 524.43 242.24 524.40 240.40 L 524.34 235.54 C 524.31 233.69 522.91 232.22 521.21 232.24 L 517.73 232.29 C 517.24 232.30 516.86 232.70 516.86 233.18"/>
<path stroke="#8cc3eb" vector-effect="non-scaling-stroke" d="M 454.35 278.51 L 454.37 286.85 C 454.37 287.08 454.56 287.27 454.79 287.27 L 457.16 287.26 C 459.94 287.26 462.18 285.36 462.18 283.03 L 462.18 282.29 C 462.18 279.96 459.92 278.08 457.14 278.08 L 454.77 278.09 C 454.54 278.09 454.35 278.27 454.35 278.51"/>
<path stroke="#8cc3eb" vector-effect="non-scaling-stroke" d="M 504.33 282.62 C 504.33 279.92 502.15 277.74 499.45 277.74 C 496.75 277.74 494.57 279.92 494.57 282.62 C 494.57 285.32 496.75 287.50 499.45 287.50 C 502.15 287.50 504.33 285.32 504.33 282.62"/>
</g>
<path fill="#c8c7ca" d="M 12.38 0.00 L 1.48 0.12 C 1.16 0.13 0.91 0.38 0.91 0.69 L 0.91 510.51 C 0.91 510.85 1.19 511.13 1.53 511.13 L 766.62 511.13 C 766.86 511.13 767.06 510.93 767.06 510.68 L 767.06 0.74 C 767.06 0.44 766.83 0.20 766.54 0.19 L 762.44 0.00 L 768.00 0.00 L 768.00 512.00 L 0.00 512.00 L 0.00 0.00 L 12.38 0.00 Z"/>
<path fill="#ffffff" d="M 762.44 0.00 L 766.54 0.19 C 766.83 0.20 767.06 0.44 767.06 0.74 L 767.06 510.68 C 767.06 510.93 766.86 511.13 766.62 511.13 L 1.53 511.13 C 1.19 511.13 0.91 510.85 0.91 510.51 L 0.91 0.69 C 0.91 0.38 1.16 0.13 1.48 0.12 L 12.38 0.00 L 762.44 0.00 Z"/>
<rect fill="#1986d6" x="239.56" y="186.71" width="12.30" height="11.76" rx="0.51"/>
<rect fill="#1986d6" x="-3.91" y="-3.91" transform="translate(264.45,193.70) rotate(-0.1)" width="7.82" height="7.82" rx="0.46"/>
<path fill="#0848a1" d="M 203.25 290.96 C 192.25 290.26 181.23 290.27 170.19 290.99 C 147.58 291.35 132.77 291.45 125.76 291.29 C 122.81 291.22 120.41 289.92 118.57 287.40 C 117.41 285.81 116.88 283.08 116.97 279.21 C 117.09 274.29 117.07 250.95 116.91 209.20 C 116.89 204.27 117.28 201.06 118.09 199.55 C 119.64 196.66 122.39 195.18 126.34 195.13 C 137.67 194.97 167.52 194.93 215.91 195.02 C 216.01 195.02 216.09 195.10 216.09 195.20 L 216.09 204.31 C 216.09 204.42 216.00 204.51 215.89 204.51 C 167.04 204.46 139.91 204.42 134.50 204.37 C 129.91 204.32 126.80 204.94 126.83 210.09 C 126.94 233.01 126.94 255.50 126.85 277.56 C 126.84 279.22 128.19 280.57 129.85 280.57 C 174.82 280.56 208.37 280.55 230.50 280.54 C 234.57 280.54 237.92 280.48 240.55 280.35 C 242.49 280.25 243.15 278.53 243.14 276.74 C 243.01 261.43 242.96 247.26 243.00 234.24 C 243.01 234.03 243.17 233.86 243.38 233.86 L 253.78 233.86 C 254.04 233.86 254.25 234.07 254.26 234.34 C 254.35 249.21 254.39 265.35 254.36 282.76 C 254.35 286.94 251.35 290.09 247.53 291.07 C 246.96 291.22 244.77 291.29 240.94 291.28 C 228.36 291.25 215.80 291.14 203.25 290.96 Z"/>
<path fill="#1ca4e9" d="M 224.09 214.25 L 224.09 200.60 C 224.09 200.25 224.37 199.97 224.72 199.97 L 238.38 199.97 C 238.73 199.97 239.01 200.25 239.01 200.60 L 239.01 214.25 C 239.01 214.60 238.73 214.88 238.38 214.88 L 224.72 214.88 C 224.37 214.88 224.09 214.60 224.09 214.25 Z"/>
<path fill="#1986d6" d="M 251.82 202.09 L 260.44 202.09 C 260.72 202.09 260.95 202.32 260.95 202.60 L 260.95 211.79 C 260.95 212.07 260.72 212.30 260.44 212.30 L 251.82 212.30 C 251.54 212.30 251.31 212.07 251.31 211.79 L 251.31 202.60 C 251.31 202.32 251.54 202.09 251.82 202.09 Z"/>
<path fill="#0848a1" d="M 190.23 238.96 L 185.93 252.83 C 185.79 253.29 185.36 253.60 184.88 253.60 L 166.63 253.60 C 166.34 253.60 166.11 253.83 166.11 254.12 C 166.10 255.85 166.07 260.47 166.04 267.96 C 166.04 269.03 165.28 270.16 163.77 271.33 C 163.55 271.50 163.28 271.59 163.00 271.59 L 148.24 271.59 C 147.94 271.59 147.69 271.35 147.70 271.05 C 147.78 254.35 147.77 237.74 147.67 221.21 C 147.66 219.80 148.51 218.31 150.22 216.72 C 153.56 213.60 157.80 213.99 162.33 214.04 C 169.19 214.13 181.18 214.06 198.29 213.85 C 198.87 213.85 199.28 214.41 199.11 214.96 L 195.50 226.60 C 195.39 226.97 195.05 227.22 194.66 227.22 L 166.74 227.22 C 166.38 227.22 166.08 227.52 166.08 227.88 L 166.08 236.88 C 166.08 237.51 166.59 238.02 167.22 238.02 L 189.54 238.02 C 190.03 238.02 190.38 238.49 190.23 238.96 Z"/>
<path fill="#1ca4e9" d="M 232.31 248.51 L 212.07 252.40 L 201.22 252.32 L 191.71 252.39 C 191.33 252.40 191.04 252.06 191.09 251.69 L 192.01 245.52 L 194.01 238.68 C 194.09 238.39 194.36 238.19 194.66 238.19 L 211.14 238.19 C 211.71 238.19 212.18 237.72 212.18 237.15 L 212.18 215.47 C 212.18 215.12 212.46 214.84 212.81 214.84 L 223.04 214.84 C 223.38 214.84 223.65 215.11 223.65 215.45 L 223.65 220.36 C 223.65 220.84 224.04 221.23 224.52 221.23 L 231.39 221.23 C 231.82 221.23 232.16 221.57 232.17 222.00 L 232.31 248.51 Z"/>
<rect fill="#0848a1" x="-5.49" y="-5.49" transform="translate(248.17,221.73) rotate(-0.4)" width="10.98" height="10.98" rx="0.58"/>
<path fill="#0848a1" d="M 286.03 233.80 L 286.03 240.01 C 286.03 240.31 286.28 240.56 286.58 240.56 L 297.60 240.56 C 297.90 240.56 298.15 240.81 298.15 241.11 L 298.15 249.00 C 298.15 249.30 297.90 249.55 297.60 249.55 L 286.62 249.55 C 286.32 249.55 286.07 249.80 286.07 250.10 L 286.07 261.49 C 286.07 261.79 285.82 262.04 285.52 262.04 L 275.99 262.04 C 275.69 262.04 275.44 261.79 275.44 261.49 L 275.44 224.83 C 275.44 224.53 275.69 224.28 275.99 224.28 L 301.84 224.28 C 302.14 224.28 302.39 224.53 302.39 224.83 L 302.39 232.70 C 302.39 233.00 302.14 233.25 301.84 233.25 L 286.58 233.25 C 286.28 233.25 286.03 233.50 286.03 233.80 Z"/>
<path fill="#0848a1" d="M 320.69 239.73 C 322.64 239.73 323.97 239.70 324.67 239.64 C 324.96 239.62 325.19 239.37 325.19 239.08 L 325.19 224.89 C 325.19 224.56 325.45 224.30 325.78 224.30 L 335.14 224.30 C 335.50 224.30 335.79 224.59 335.79 224.95 L 335.79 261.43 C 335.79 261.77 335.52 262.04 335.18 262.04 L 325.80 262.04 C 325.49 262.04 325.24 261.78 325.24 261.47 L 325.24 249.06 C 325.24 248.82 325.06 248.62 324.81 248.60 C 324.42 248.56 323.04 248.54 320.69 248.54 C 318.33 248.54 316.95 248.56 316.56 248.60 C 316.31 248.62 316.13 248.82 316.13 249.06 L 316.13 261.47 C 316.13 261.78 315.88 262.04 315.57 262.04 L 306.19 262.04 C 305.85 262.04 305.58 261.76 305.58 261.43 L 305.59 224.95 C 305.59 224.59 305.88 224.30 306.24 224.30 L 315.60 224.30 C 315.92 224.30 316.19 224.56 316.19 224.89 L 316.18 239.08 C 316.18 239.37 316.41 239.62 316.70 239.64 C 317.40 239.70 318.73 239.73 320.69 239.73 Z"/>
<path fill="#0848a1" d="M 353.04 225.69 C 353.04 225.35 353.32 225.08 353.65 225.08 L 367.31 225.10 C 373.56 225.11 378.61 230.01 378.60 236.03 L 378.58 250.95 C 378.57 256.98 373.49 261.85 367.25 261.84 L 353.59 261.82 C 353.25 261.82 352.98 261.54 352.98 261.21 L 353.04 225.69 Z"/>
<path fill="#0848a1" d="M 504.7831 251.0674 C 504.79 257.16 499.86 262.12 493.7624 262.1266 L 489.9224 262.1333 C 483.83 262.14 478.87 257.21 478.8632 251.1126 L 478.8369 236.0526 C 478.83 229.96 483.76 225.00 489.8576 224.9934 L 493.6976 224.9867 C 499.79 224.98 504.75 229.91 504.7568 236.0074 L 504.7831 251.0674 Z"/>
<path fill="#0848a1" d="M 401.90 232.21 L 391.39 232.33 C 391.00 232.34 390.68 232.66 390.69 233.04 L 390.76 239.43 C 390.76 239.82 391.08 240.14 391.47 240.14 L 400.05 240.18 C 400.35 240.18 400.59 240.42 400.59 240.71 L 400.63 246.53 C 400.63 246.80 400.41 247.02 400.14 247.03 L 391.62 247.20 C 391.19 247.21 390.84 247.56 390.84 247.98 L 390.83 254.07 C 390.83 254.47 391.15 254.78 391.54 254.78 L 401.82 254.67 C 402.15 254.66 402.41 254.93 402.42 255.25 L 402.47 260.98 C 402.47 261.34 402.18 261.64 401.81 261.64 L 382.95 261.72 C 382.68 261.72 382.45 261.49 382.46 261.22 L 382.34 225.76 C 382.34 225.47 382.57 225.24 382.86 225.23 L 401.79 225.05 C 402.13 225.05 402.40 225.32 402.41 225.67 L 402.42 231.68 C 402.42 231.97 402.19 232.20 401.90 232.21 Z"/>
<path fill="#0848a1" d="M 418.99 251.67 C 419.01 251.76 419.13 251.76 419.15 251.67 L 424.19 225.67 C 424.21 225.53 424.34 225.42 424.49 225.42 L 432.54 225.42 C 432.69 225.42 432.81 225.56 432.77 225.70 L 424.04 261.46 C 423.97 261.74 423.72 261.93 423.44 261.93 L 413.94 261.93 C 413.69 261.93 413.47 261.76 413.41 261.52 L 404.57 225.69 C 404.52 225.49 404.67 225.29 404.88 225.29 L 412.92 225.29 C 413.19 225.29 413.43 225.49 413.49 225.76 L 418.99 251.67 Z"/>
<path fill="#0848a1" d="M 454.65 254.72 C 454.94 254.72 455.18 254.95 455.17 255.24 L 455.21 261.24 C 455.21 261.58 454.93 261.86 454.60 261.86 L 435.72 261.82 C 435.43 261.82 435.20 261.59 435.20 261.30 L 435.03 225.94 C 435.02 225.67 435.24 225.44 435.52 225.44 L 454.33 225.36 C 454.69 225.36 454.99 225.65 454.99 226.01 L 454.98 231.73 C 454.98 232.06 454.72 232.32 454.39 232.32 L 444.14 232.29 C 443.75 232.29 443.44 232.61 443.44 233.00 L 443.49 239.07 C 443.50 239.50 443.85 239.84 444.27 239.85 L 452.78 239.95 C 453.05 239.95 453.27 240.17 453.27 240.44 L 453.28 246.24 C 453.28 246.54 453.04 246.78 452.74 246.79 L 444.19 246.89 C 443.80 246.89 443.48 247.21 443.48 247.61 L 443.47 253.97 C 443.46 254.36 443.78 254.68 444.17 254.68 L 454.65 254.72 Z"/>
<path fill="#0848a1" d="M 467.27 226.09 L 467.27 254.24 C 467.27 254.59 467.55 254.87 467.90 254.87 L 477.35 254.87 C 477.70 254.87 477.98 255.15 477.98 255.50 L 477.98 261.16 C 477.98 261.51 477.70 261.79 477.35 261.79 L 459.37 261.79 C 459.02 261.79 458.74 261.51 458.74 261.16 L 458.74 226.09 C 458.74 225.74 459.02 225.46 459.37 225.46 L 466.64 225.46 C 466.99 225.46 467.27 225.74 467.27 226.09 Z"/>
<path fill="#0848a1" d="M 508.50 261.37 L 508.50 226.01 C 508.50 225.79 508.67 225.61 508.89 225.61 C 512.47 225.60 515.61 225.54 518.31 225.43 C 522.60 225.27 525.67 225.63 527.52 226.50 C 533.69 229.41 532.89 235.73 532.79 241.66 C 532.71 245.70 529.79 249.07 525.95 249.97 C 523.91 250.45 521.04 250.68 517.33 250.66 C 517.08 250.66 516.88 250.86 516.88 251.11 L 516.88 261.46 C 516.88 261.68 516.71 261.85 516.49 261.85 L 508.97 261.85 C 508.71 261.85 508.50 261.64 508.50 261.37 Z"/>
<path fill="#0848a1" d="M 551.79 243.83 C 551.98 243.83 552.10 243.75 552.16 243.60 C 553.72 239.25 556.05 233.48 559.14 226.29 C 559.32 225.88 559.72 225.62 560.16 225.62 L 567.05 225.62 C 567.43 225.62 567.74 225.93 567.74 226.31 L 567.74 261.16 C 567.74 261.55 567.43 261.86 567.05 261.86 L 560.45 261.86 C 560.07 261.86 559.77 261.56 559.77 261.18 L 559.77 241.23 C 559.77 241.01 559.47 240.95 559.39 241.16 L 555.09 252.92 C 554.98 253.23 554.69 253.43 554.36 253.44 C 553.88 253.45 553.03 253.46 551.80 253.46 C 550.58 253.46 549.73 253.46 549.25 253.45 C 548.91 253.44 548.62 253.23 548.51 252.93 L 544.19 241.18 C 544.11 240.97 543.81 241.03 543.81 241.25 L 543.85 261.20 C 543.85 261.57 543.55 261.88 543.17 261.88 L 536.57 261.89 C 536.19 261.89 535.88 261.58 535.88 261.19 L 535.81 226.34 C 535.81 225.96 536.11 225.65 536.50 225.65 L 543.39 225.64 C 543.83 225.64 544.23 225.90 544.41 226.31 C 547.52 233.49 549.85 239.25 551.43 243.60 C 551.48 243.75 551.60 243.83 551.79 243.83 Z"/>
<path fill="#0848a1" d="M 591.78 261.82 L 572.91 261.82 C 572.58 261.82 572.32 261.56 572.32 261.23 L 572.32 226.07 C 572.32 225.74 572.58 225.48 572.91 225.48 L 591.54 225.48 C 591.87 225.48 592.13 225.74 592.13 226.07 L 592.13 231.77 C 592.13 232.10 591.87 232.36 591.54 232.36 L 581.25 232.36 C 580.92 232.36 580.66 232.62 580.66 232.95 L 580.66 239.34 C 580.66 239.67 580.92 239.93 581.25 239.93 L 589.85 239.93 C 590.18 239.93 590.44 240.19 590.44 240.52 L 590.44 246.27 C 590.44 246.60 590.18 246.86 589.85 246.86 L 581.27 246.86 C 580.94 246.86 580.68 247.12 580.68 247.45 L 580.68 254.10 C 580.68 254.43 580.94 254.69 581.27 254.69 L 591.78 254.69 C 592.11 254.69 592.37 254.95 592.37 255.28 L 592.37 261.23 C 592.37 261.56 592.11 261.82 591.78 261.82 Z"/>
<path fill="#0848a1" d="M 612.41 242.31 C 612.83 243.18 613.36 244.32 614.00 245.75 C 614.13 246.05 614.58 245.95 614.58 245.62 L 614.58 226.05 C 614.58 225.83 614.76 225.65 614.98 225.65 L 622.43 225.65 C 622.62 225.65 622.77 225.80 622.77 225.99 L 622.77 261.19 C 622.77 261.59 622.45 261.91 622.05 261.91 L 615.60 261.91 C 615.28 261.91 614.98 261.74 614.83 261.45 C 611.68 255.75 608.88 250.35 606.43 245.25 C 606.02 244.37 605.49 243.23 604.85 241.81 C 604.71 241.51 604.27 241.60 604.27 241.93 L 604.27 261.50 C 604.27 261.72 604.09 261.90 603.87 261.90 L 596.42 261.90 C 596.23 261.90 596.08 261.75 596.08 261.56 L 596.08 226.36 C 596.08 225.96 596.40 225.64 596.80 225.64 L 603.25 225.64 C 603.57 225.64 603.86 225.82 604.01 226.10 C 607.17 231.80 609.97 237.21 612.41 242.31 Z"/>
<path fill="#0848a1" d="M 637.51 225.69 C 641.47 225.68 645.25 225.66 648.87 225.63 C 649.22 225.63 649.51 225.91 649.51 226.26 L 649.51 231.68 C 649.51 232.07 649.19 232.39 648.80 232.39 L 642.48 232.39 C 642.17 232.39 641.92 232.64 641.92 232.95 L 641.91 261.34 C 641.91 261.61 641.71 261.83 641.45 261.86 C 641.43 261.86 640.15 261.86 637.60 261.87 C 635.05 261.88 633.77 261.88 633.75 261.88 C 633.49 261.85 633.29 261.63 633.29 261.36 L 633.13 232.97 C 633.13 232.66 632.87 232.41 632.57 232.42 L 626.25 232.45 C 625.85 232.45 625.53 232.13 625.53 231.74 L 625.50 226.32 C 625.50 225.97 625.79 225.69 626.14 225.69 C 629.76 225.70 633.54 225.70 637.51 225.69 Z"/>
<rect fill="#ffffff" x="-4.38" y="-11.68" transform="translate(491.80,243.54) rotate(0.3)" width="8.76" height="23.36" rx="4.07"/>
<path fill="#ffffff" d="M 361.67 232.65 C 361.67 232.39 361.88 232.17 362.15 232.17 L 365.30 232.18 C 367.96 232.18 370.11 234.40 370.10 237.14 L 370.08 250.14 C 370.07 252.87 367.92 255.08 365.26 255.08 L 362.11 255.07 C 361.84 255.07 361.63 254.86 361.63 254.59 L 361.67 232.65 Z"/>
<path fill="#ffffff" d="M 516.86 233.18 C 516.86 232.70 517.24 232.30 517.73 232.29 L 521.21 232.24 C 522.91 232.22 524.31 233.69 524.34 235.54 L 524.40 240.40 C 524.43 242.24 523.07 243.76 521.37 243.78 L 517.89 243.83 C 517.40 243.84 517.01 243.45 517.00 242.96 L 516.86 233.18 Z"/>
<path fill="#1986d6" d="M 201.22 252.32 L 197.87 252.51 C 197.55 252.53 197.30 252.80 197.30 253.13 L 197.30 270.69 C 197.30 271.13 196.95 271.48 196.51 271.48 L 179.18 271.48 C 178.98 271.48 178.82 271.32 178.82 271.12 L 178.82 257.14 C 178.82 256.84 179.07 256.60 179.37 256.60 L 187.49 256.60 C 188.09 256.60 188.61 256.22 188.79 255.65 L 192.01 245.52 L 191.09 251.69 C 191.04 252.06 191.33 252.40 191.71 252.39 L 201.22 252.32 Z"/>
<path fill="#1986d6" d="M 232.31 248.51 C 232.26 253.75 232.28 258.98 232.37 264.20 C 232.49 270.25 227.32 271.74 221.76 271.52 C 219.91 271.45 216.87 271.48 212.63 271.61 C 212.32 271.62 212.06 271.36 212.06 271.05 L 212.07 252.40 L 232.31 248.51 Z"/>
<path fill="#1986d6" d="M 391.21 275.66 C 391.50 275.77 391.68 276.08 391.62 276.39 L 391.39 277.56 C 391.30 278.03 390.82 278.31 390.36 278.17 C 388.30 277.52 386.27 277.44 384.26 277.93 C 382.95 278.24 382.95 280.10 384.26 280.42 C 386.44 280.95 390.12 281.33 391.58 282.84 C 393.07 284.39 393.12 286.25 391.73 288.42 C 389.88 291.32 383.27 290.44 380.43 289.24 C 380.12 289.11 379.95 288.79 380.01 288.46 L 380.23 287.34 C 380.31 286.92 380.75 286.68 381.15 286.84 C 383.48 287.75 385.83 287.85 388.20 287.14 C 389.27 286.82 389.26 285.30 388.18 285.00 C 385.26 284.20 380.51 283.47 379.94 280.59 C 378.68 274.26 387.33 274.19 391.21 275.66 Z"/>
<path fill="#1986d6" d="M 408.87 274.98 C 411.33 274.98 413.28 274.94 414.71 274.86 C 415.24 274.83 415.69 275.26 415.69 275.80 L 415.69 276.98 C 415.69 277.53 415.24 277.98 414.69 277.98 L 411.38 277.98 C 410.98 277.98 410.65 278.30 410.65 278.70 L 410.65 289.37 C 410.65 289.72 410.39 290.01 410.05 290.06 C 409.73 290.10 409.35 290.12 408.92 290.12 C 408.48 290.12 408.10 290.10 407.78 290.07 C 407.44 290.02 407.18 289.73 407.18 289.38 L 407.11 278.71 C 407.10 278.31 406.78 277.99 406.37 278.00 L 403.06 278.02 C 402.51 278.02 402.06 277.58 402.06 277.02 L 402.05 275.84 C 402.05 275.31 402.49 274.88 403.03 274.90 C 404.46 274.97 406.40 274.99 408.87 274.98 Z"/>
<path fill="#1986d6" d="M 432.29 287.44 C 434.60 287.45 435.66 286.06 435.69 283.73 C 435.73 280.94 435.71 278.29 435.64 275.78 C 435.63 275.34 435.99 274.97 436.43 274.97 L 438.43 274.97 C 438.86 274.97 439.20 275.31 439.20 275.74 C 439.25 281.16 439.19 284.66 439.04 286.23 C 438.77 288.97 435.14 290.28 432.28 290.27 C 429.43 290.26 425.80 288.93 425.55 286.19 C 425.40 284.61 425.37 281.12 425.45 275.70 C 425.46 275.27 425.80 274.93 426.23 274.93 L 428.23 274.94 C 428.67 274.95 429.03 275.31 429.01 275.76 C 428.92 278.27 428.89 280.92 428.91 283.71 C 428.93 286.03 429.98 287.43 432.29 287.44 Z"/>
<path fill="#1986d6" d="M 450.41 275.61 C 450.41 275.24 450.71 274.94 451.08 274.94 L 458.26 274.93 C 462.56 274.92 466.05 278.29 466.06 282.45 L 466.06 282.59 C 466.07 286.75 462.59 290.12 458.28 290.13 L 451.10 290.14 C 450.73 290.14 450.43 289.84 450.43 289.47 L 450.41 275.61 Z"/>
<path fill="#1986d6" d="M 490.8551 282.0264 C 491.18 277.75 495.25 274.58 499.9453 274.9429 C 504.64 275.30 508.17 279.06 507.8449 283.3336 C 507.52 287.61 503.45 290.78 498.7547 290.4171 C 494.06 290.06 490.53 286.30 490.8551 282.0264 Z"/>
<rect fill="#1986d6" x="-1.81" y="-7.47" transform="translate(478.52,282.70) rotate(-0.1)" width="3.62" height="14.94" rx="0.41"/>
<path fill="#ffffff" d="M 454.35 278.51 C 454.35 278.27 454.54 278.09 454.77 278.09 L 457.14 278.08 C 459.92 278.08 462.18 279.96 462.18 282.29 L 462.18 283.03 C 462.18 285.36 459.94 287.26 457.16 287.26 L 454.79 287.27 C 454.56 287.27 454.37 287.08 454.37 286.85 L 454.35 278.51 Z"/>
<circle fill="#ffffff" cx="499.45" cy="282.62" r="4.88"/>
<rect fill="#1986d6" x="275.24" y="279.48" width="91.44" height="3.06" rx="0.51"/>
<rect fill="#1986d6" x="523.41" y="279.50" width="118.48" height="3.02" rx="0.64"/>
<path fill="#c8c7ca" d="M 203.25 290.96 C 203.24 291.35 203.18 291.62 203.06 291.78 C 202.91 291.51 202.72 291.37 202.48 291.37 C 191.95 291.27 181.09 291.26 169.90 291.33 C 169.99 291.22 170.09 291.10 170.19 290.99 C 181.23 290.27 192.25 290.26 203.25 290.96 Z"/>
<path fill="#0848a1" d="M 203.06 291.78 C 204.25 298.23 208.09 302.35 214.57 304.12 C 219.56 305.48 222.07 306.17 222.12 306.19 C 222.97 306.49 223.36 307.00 223.28 307.72 C 223.25 308.01 223.00 308.23 222.70 308.23 L 150.42 308.08 C 149.87 308.08 149.48 307.54 149.65 307.02 L 149.66 306.98 C 149.89 306.31 150.48 305.82 151.18 305.71 C 162.83 303.91 169.07 299.12 169.90 291.33 C 181.09 291.26 191.95 291.27 202.48 291.37 C 202.72 291.37 202.91 291.51 203.06 291.78 Z"/>
</svg>
