<?xml version="1.0" encoding="UTF-8"?><svg id="Layer_1" xmlns="http://www.w3.org/2000/svg" viewBox="0 0 500 125.956"><defs><style>.cls-1{fill:#1ca4e9;}.cls-2{fill:#0848a1;}.cls-3{fill:#1986d6;}</style></defs><path class="cls-3" d="M131.793,17.309c0,.252-.207.459-.459.459h-10.151c-.252,0-.459-.207-.459-.459V7.644c0-.252.207-.459.459-.459h10.151c.252,0,.459.207.459.459v9.665h0Z"/><path class="cls-3" d="M146.647,16.574c.004.231-.185.411-.413.415l-6.21.011c-.231.004-.411-.185-.415-.413l-.011-6.21c-.004-.231.185-.411.413-.415l6.21-.011c.231-.004.411.185.415.413l.011,6.21h0Z"/><path class="cls-2" d="M88.046,101.004c-9.899-.63-19.817-.621-29.752.027-20.348.324-33.676.414-39.984.27-2.655-.063-4.815-1.233-6.471-3.501-1.044-1.431-1.521-3.888-1.44-7.371.108-4.428.09-25.432-.054-63.005-.018-4.437.333-7.326,1.062-8.684,1.395-2.601,3.87-3.933,7.425-3.978,10.196-.144,37.06-.18,80.608-.099.09,0,.162.072.162.162v8.198c0,.099-.081.18-.18.18-43.962-.045-68.378-.081-73.246-.126-4.131-.045-6.93.513-6.903,5.148.099,20.627.099,40.866.018,60.719-.009,1.494,1.206,2.709,2.7,2.709,40.47-.009,70.664-.018,90.579-.027,3.663,0,6.678-.054,9.044-.171,1.746-.09,2.34-1.638,2.331-3.249-.117-13.778-.162-26.53-.126-38.248.009-.189.153-.342.342-.342h9.359c.234,0,.423.189.432.432.081,13.382.117,27.907.09,43.575-.009,3.762-2.709,6.597-6.147,7.479-.513.135-2.484.198-5.931.189-11.321-.027-22.625-.126-33.919-.288h0Z"/><path class="cls-1" d="M106.801,31.969v-12.284c0-.315.252-.567.567-.567h12.293c.315,0,.567.252.567.567v12.284c0,.315-.252.567-.567.567h-12.293c-.315,0-.567-.252-.567-.567h0Z"/><path class="cls-3" d="M131.757,21.026h7.758c.252,0,.459.207.459.459v8.27c0,.252-.207.459-.459.459h-7.758c-.252,0-.459-.207-.459-.459v-8.27c0-.252.207-.459.459-.459h0Z"/><path class="cls-2" d="M76.329,54.207l-3.87,12.482c-.126.414-.513.693-.945.693h-16.424c-.261,0-.468.207-.468.468-.009,1.557-.036,5.715-.063,12.455,0,.963-.684,1.98-2.043,3.033-.198.153-.441.234-.693.234h-13.283c-.27,0-.495-.216-.486-.486.072-15.029.063-29.977-.027-44.853-.009-1.269.756-2.61,2.295-4.041,3.006-2.808,6.822-2.457,10.898-2.412,6.174.081,16.964.018,32.362-.171.522,0,.891.504.738.999l-3.249,10.475c-.099.333-.405.558-.756.558h-25.126c-.324,0-.594.27-.594.594v8.099c0,.567.459,1.026,1.026,1.026h20.087c.441,0,.756.423.621.846h0Z"/><path class="cls-1" d="M114.2,62.8l-18.22,3.5-12.91-6.41-4.74-1.15,1.4-4.78c.07-.27.32-.45.59-.45h14.83c.51,0,.93-.42.93-.93v-19.51c0-.32.25-.57.57-.57h9.21c.3,0,.55.24.55.55v4.42c0,.43.35.78.78.78h6.18c.39,0,.69.31.7.69l.13,23.86Z"/><path class="cls-2" d="M133.443,43.085c.005.287-.229.521-.518.526l-8.837.062c-.287.005-.521-.229-.526-.518l-.062-8.837c-.005-.287.229-.521.518-.526l8.837-.062c.287-.005.521.229.526.518l.062,8.837h0Z"/><path class="cls-2" d="M162.544,49.563v5.589c0,.27.225.495.495.495h9.917c.27,0,.495.225.495.495v7.101c0,.27-.225.495-.495.495h-9.881c-.27,0-.495.225-.495.495v10.25c0,.27-.225.495-.495.495h-8.576c-.27,0-.495-.225-.495-.495v-32.992c0-.27.225-.495.495-.495h23.264c.27,0,.495.225.495.495v7.083c0,.27-.225.495-.495.495h-13.733c-.27,0-.495.225-.495.495h0Z"/><path class="cls-2" d="M193.736,54.9c1.755,0,2.952-.027,3.582-.081.261-.018.468-.243.468-.504v-12.77c0-.297.234-.531.531-.531h8.423c.324,0,.585.261.585.585v32.83c0,.306-.243.549-.549.549h-8.442c-.279,0-.504-.234-.504-.513v-11.168c0-.216-.162-.396-.387-.414-.351-.036-1.593-.054-3.708-.054s-3.366.018-3.717.054c-.225.018-.387.198-.387.414v11.168c0,.279-.225.513-.504.513h-8.441c-.306,0-.549-.252-.549-.549l.009-32.83c0-.324.261-.585.585-.585h8.424c.288,0,.531.234.531.531l-.009,12.77c0,.261.207.486.468.504.63.054,1.827.081,3.591.081h0Z"/><path class="cls-2" d="M235.69,41.73l-12.29-.01c-.3,0-.55.24-.55.54l-.05,31.97c0,.3.24.55.54.55l12.3.02c5.61.01,10.18-4.38,10.19-9.8l.02-13.43c.01-5.42-4.53-9.83-10.16-9.84ZM238.18,64.27c0,2.46-1.94,4.44-4.33,4.44h-2.84c-.24,0-.43-.19-.43-.44l.04-19.74c0-.24.18-.43.43-.43l2.83.01c2.4,0,4.33,1.99,4.32,4.46l-.02,11.7Z"/><path class="cls-2" d="M359.39,51.55c-.01-5.49-4.47-9.92-9.96-9.92l-3.45.01c-5.49,0-9.93,4.47-9.92,9.95l.02,13.55c.01,5.49,4.47,9.93,9.96,9.92h3.45c5.49-.01,9.93-4.47,9.92-9.96l-.02-13.55ZM351.63,65.2c-.01,2.02-1.65,3.65-3.68,3.64h-.56c-2.02-.01-3.65-1.66-3.64-3.68l.07-13.7c.01-2.02,1.66-3.65,3.68-3.64h.56c2.02.01,3.65,1.66,3.64,3.68l-.07,13.7Z"/><path class="cls-2" d="M266.82,48.132l-9.458.108c-.351.009-.639.297-.63.639l.063,5.751c0,.351.288.639.639.639l7.721.036c.27,0,.486.216.486.477l.036,5.238c0,.243-.198.441-.441.45l-7.668.153c-.387.009-.702.324-.702.702l-.009,5.481c0,.36.288.639.639.639l9.251-.099c.297-.009.531.234.54.522l.045,5.157c0,.324-.261.594-.594.594l-16.973.072c-.243,0-.45-.207-.441-.45l-.108-31.912c0-.261.207-.468.468-.477l17.036-.162c.306,0,.549.243.558.558l.009,5.409c0,.261-.207.468-.468.477h0Z"/><path class="cls-2" d="M282.2,65.645c.018.081.126.081.144,0l4.536-23.399c.018-.126.135-.225.27-.225h7.245c.135,0,.243.126.207.252l-7.857,32.182c-.063.252-.288.423-.54.423h-8.549c-.225,0-.423-.153-.477-.369l-7.956-32.245c-.045-.18.09-.36.279-.36h7.236c.243,0,.459.18.513.423l4.95,23.318h0Z"/><path class="cls-2" d="M314.292,68.39c.261,0,.477.207.468.468l.036,5.4c0,.306-.252.558-.549.558l-16.991-.036c-.261,0-.468-.207-.468-.468l-.153-31.822c-.009-.243.189-.45.441-.45l16.928-.072c.324,0,.594.261.594.585l-.009,5.148c0,.297-.234.531-.531.531l-9.224-.027c-.351,0-.63.288-.63.639l.045,5.463c.009.387.324.693.702.702l7.659.09c.243,0,.441.198.441.441l.009,5.22c0,.27-.216.486-.486.495l-7.694.09c-.351,0-.639.288-.639.648l-.009,5.724c-.009.351.279.639.63.639l9.431.036h0Z"/><path class="cls-2" d="M325.65,42.625v25.333c0,.315.252.567.567.567h8.504c.315,0,.567.252.567.567v5.094c0,.315-.252.567-.567.567h-16.181c-.315,0-.567-.252-.567-.567v-31.561c0-.315.252-.567.567-.567h6.543c.315,0,.567.252.567.567h0Z"/><path class="cls-2" d="M379.87,42.99c-1.66-.78-4.43-1.1-8.29-.96-2.43.1-5.25.15-8.47.16-.2,0-.36.16-.36.36v31.82c0,.25.19.44.43.44h6.76c.2,0,.36-.16.36-.35v-9.32c0-.22.18-.4.4-.4,3.34.01,5.92-.19,7.76-.62,3.45-.81,6.08-3.85,6.15-7.48.09-5.34.81-11.03-4.74-13.65ZM374.34,58.54l-3.14.05c-.44.01-.79-.34-.8-.78l-.12-8.8c0-.44.34-.8.78-.81l3.13-.04c1.53-.02,2.79,1.3,2.82,2.97l.05,4.37c.03,1.66-1.19,3.03-2.72,3.04Z"/><path class="cls-2" d="M401.713,58.59c.171,0,.279-.072.333-.207,1.404-3.915,3.501-9.107,6.282-15.578.162-.369.522-.603.918-.603h6.201c.342,0,.621.279.621.621v31.363c0,.351-.279.63-.621.63h-5.94c-.342,0-.612-.27-.612-.612v-17.954c0-.198-.27-.252-.342-.063l-3.87,10.583c-.099.279-.36.459-.657.468-.432.009-1.197.018-2.304.018-1.098,0-1.863,0-2.295-.009-.306-.009-.567-.198-.666-.468l-3.888-10.574c-.072-.189-.342-.135-.342.063l.036,17.954c0,.333-.27.612-.612.612l-5.94.009c-.342,0-.621-.279-.621-.63l-.063-31.363c0-.342.27-.621.621-.621l6.201-.009c.396,0,.756.234.918.603,2.799,6.462,4.896,11.645,6.318,15.56.045.135.153.207.324.207h0Z"/><path class="cls-2" d="M437.702,74.78h-16.982c-.297,0-.531-.234-.531-.531v-31.642c0-.297.234-.531.531-.531h16.766c.297,0,.531.234.531.531v5.13c0,.297-.234.531-.531.531h-9.26c-.297,0-.531.234-.531.531v5.751c0,.297.234.531.531.531h7.739c.297,0,.531.234.531.531v5.175c0,.297-.234.531-.531.531h-7.721c-.297,0-.531.234-.531.531v5.985c0,.297.234.531.531.531h9.458c.297,0,.531.234.531.531v5.355c0,.297-.234.531-.531.531h0Z"/><path class="cls-2" d="M456.267,57.222c.378.783.855,1.809,1.431,3.096.117.27.522.18.522-.117v-17.612c0-.198.162-.36.36-.36h6.705c.171,0,.306.135.306.306v31.678c0,.36-.288.648-.648.648h-5.805c-.288,0-.558-.153-.693-.414-2.835-5.13-5.355-9.989-7.56-14.579-.369-.792-.846-1.818-1.422-3.096-.126-.27-.522-.189-.522.108v17.612c0,.198-.162.36-.36.36h-6.705c-.171,0-.306-.135-.306-.306v-31.678c0-.36.288-.648.648-.648h5.805c.288,0,.549.162.684.414,2.844,5.13,5.364,9.998,7.559,14.588h0Z"/><path class="cls-2" d="M478.856,42.265c3.564-.009,6.966-.027,10.223-.054.315,0,.576.252.576.567v4.878c0,.351-.288.639-.639.639h-5.688c-.279,0-.504.225-.504.504l-.009,25.549c0,.243-.18.441-.414.468-.018,0-1.17,0-3.465.009-2.295.009-3.447.009-3.465.009-.234-.027-.414-.225-.414-.468l-.144-25.549c0-.279-.234-.504-.504-.495l-5.688.027c-.36,0-.648-.288-.648-.639l-.027-4.878c0-.315.261-.567.576-.567,3.258.009,6.659.009,10.232,0h0Z"/><path class="cls-3" d="M82.83,66.6c-.09.1-.14.22-.14.36v15.8c0,.4-.31.71-.71.71h-15.6c-.18,0-.32-.14-.32-.32v-12.58c0-.27.23-.49.5-.49h7.3c.54,0,1.01-.34,1.17-.85l.79-2.47,7.01-.16Z"/><path class="cls-3" d="M114.199,62.802c-.045,4.716-.027,9.422.054,14.12.108,5.445-4.545,6.786-9.548,6.588-1.665-.063-4.401-.036-8.216.081-.279.009-.513-.225-.513-.504l.009-16.784,18.215-3.501h0Z"/><path class="cls-3" d="M257.2,87.235c.261.099.423.378.369.657l-.207,1.053c-.081.423-.513.675-.927.549-1.854-.585-3.681-.657-5.49-.216-1.179.279-1.179,1.953,0,2.241,1.962.477,5.274.819,6.588,2.178,1.341,1.395,1.386,3.069.135,5.022-1.665,2.61-7.614,1.818-10.169.738-.279-.117-.432-.405-.378-.702l.198-1.008c.072-.378.468-.594.828-.45,2.097.819,4.212.909,6.345.27.963-.288.954-1.656-.018-1.926-2.628-.72-6.903-1.377-7.416-3.969-1.134-5.697,6.651-5.76,10.142-4.437h0Z"/><path class="cls-3" d="M273.093,86.623c2.214,0,3.969-.036,5.256-.108.477-.027.882.36.882.846v1.062c0,.495-.405.9-.9.9h-2.979c-.36,0-.657.288-.657.648v9.602c0,.315-.234.576-.54.621-.288.036-.63.054-1.017.054-.396,0-.738-.018-1.026-.045-.306-.045-.54-.306-.54-.621l-.063-9.602c-.009-.36-.297-.648-.666-.639l-2.979.018c-.495,0-.9-.396-.9-.9l-.009-1.062c0-.477.396-.864.882-.846,1.287.063,3.033.081,5.256.072h0Z"/><path class="cls-3" d="M294.17,97.836c2.079.009,3.033-1.242,3.06-3.339.036-2.511.018-4.896-.045-7.155-.009-.396.315-.729.711-.729h1.8c.387,0,.693.306.693.693.045,4.878-.009,8.027-.144,9.44-.243,2.466-3.51,3.645-6.084,3.636-2.565-.009-5.832-1.206-6.057-3.672-.135-1.422-.162-4.563-.09-9.44.009-.387.315-.693.702-.693l1.8.009c.396.009.72.333.702.738-.081,2.259-.108,4.644-.09,7.155.018,2.088.963,3.348,3.042,3.357h0Z"/><path class="cls-3" d="M317.54,86.58l-6.46.01c-.33,0-.6.27-.6.6l.01,12.47c0,.34.27.61.61.61l6.46-.01c3.88-.01,7.01-3.04,7-6.79v-.12c-.01-3.75-3.15-6.78-7.02-6.77ZM321.07,93.87c0,2.09-2.02,3.8-4.52,3.8l-2.13.01c-.21,0-.38-.17-.38-.37l-.02-7.51c0-.22.17-.38.38-.38l2.13-.01c2.5,0,4.54,1.69,4.54,3.79v.67Z"/><path class="cls-3" d="M355.06,86.59c-4.23-.33-7.89,2.53-8.19,6.37-.29,3.85,2.89,7.23,7.11,7.56,4.23.32,7.89-2.53,8.18-6.38.3-3.85-2.88-7.23-7.1-7.55ZM354.61,97.89c-2.43,0-4.39-1.96-4.39-4.39s1.96-4.39,4.39-4.39,4.39,1.96,4.39,4.39-1.96,4.39-4.39,4.39Z"/><path class="cls-3" d="M337.414,99.921c-.002.201-.164.372-.368.37l-2.52.004c-.201-.002-.372-.164-.37-.368l-.022-12.707c.002-.201.164-.372.368-.37l2.52-.004c.201.002.372.164.37.368l.022,12.707h0Z"/><path class="cls-3" d="M235.124,92.968c0,.252-.207.459-.459.459h-81.373c-.252,0-.459-.207-.459-.459v-1.836c0-.252.207-.459.459-.459h81.373c.252,0,.459.207.459.459v1.836h0Z"/><path class="cls-3" d="M482.798,92.833c0,.315-.261.576-.576.576h-105.473c-.315,0-.576-.261-.576-.576v-1.566c0-.315.261-.576.576-.576h105.473c.315,0,.576.261.576.576v1.566h0Z"/><path class="cls-2" d="M87.876,101.742c1.071,5.805,4.527,9.512,10.358,11.105,4.491,1.224,6.75,1.845,6.795,1.863.765.27,1.116.729,1.044,1.377-.027.261-.252.459-.522.459l-65.048-.135c-.495,0-.846-.486-.693-.954l.009-.036c.207-.603.738-1.044,1.368-1.143,10.484-1.62,16.1-5.931,16.847-12.941,10.07-.063,19.844-.054,29.32.036.216,0,.387.126.522.369h0Z"/><polygon class="cls-1" points="95.98 66.3 82.83 66.6 75.82 66.76 77.93 60.11 78.33 58.74 83.07 59.89 95.98 66.3"/></svg>